<svg id="svg" version="1.1" xmlns="http://www.w3.org/2000/svg" xmlns:xlink="http://www.w3.org/1999/xlink" width="400" height="564.3333333333333" viewBox="0, 0, 400,564.3333333333333"><g id="svgg"><path id="path0" d="M74.527 195.417 C 74.610 196.012,75.575 206.550,76.672 218.833 C 77.768 231.117,78.754 241.879,78.864 242.750 L 79.063 244.333 174.677 244.333 L 270.291 244.333 270.139 245.417 C 270.055 246.012,269.089 256.775,267.992 269.333 C 266.895 281.892,265.906 292.954,265.794 293.917 L 265.590 295.667 174.470 295.667 L 83.350 295.667 83.507 296.583 C 83.593 297.087,84.568 307.850,85.673 320.500 C 86.779 333.150,87.761 343.988,87.857 344.583 L 88.030 345.667 174.720 345.667 L 261.409 345.667 261.220 347.083 C 261.116 347.863,259.799 362.450,258.294 379.500 C 256.788 396.550,255.538 410.530,255.516 410.568 C 255.494 410.605,242.901 414.030,227.532 418.179 L 199.588 425.722 172.044 418.308 C 156.895 414.230,144.335 410.730,144.133 410.530 C 143.918 410.317,143.114 402.706,142.193 392.167 C 141.328 382.267,140.535 373.379,140.431 372.417 L 140.242 370.667 115.287 370.667 L 90.333 370.667 90.324 371.417 C 90.302 373.136,97.121 448.855,97.318 449.084 C 97.437 449.222,120.525 455.720,148.625 463.525 L 199.716 477.717 250.919 463.520 C 279.080 455.712,302.151 449.288,302.188 449.245 C 302.249 449.173,306.916 397.005,319.820 252.167 C 322.466 222.467,324.721 197.304,324.832 196.250 L 325.033 194.333 199.704 194.333 L 74.375 194.333 74.527 195.417 " stroke="none" fill="#f4f4f4" fill-rule="evenodd"></path><path id="path1" d="M-0.008 111.583 C -0.018 112.697,35.978 517.552,36.172 518.509 C 36.294 519.110,194.696 563.599,199.112 564.273 C 200.862 564.540,363.325 519.301,363.492 518.500 C 363.568 518.133,371.737 426.708,381.645 315.333 C 391.553 203.958,399.726 112.346,399.809 111.750 L 399.958 110.667 199.979 110.667 L 0.000 110.667 -0.008 111.583 M363.123 145.583 C 363.043 146.271,359.759 182.983,355.826 227.167 C 349.784 295.052,341.412 388.948,333.928 472.773 C 332.966 483.556,332.081 492.536,331.962 492.728 C 331.843 492.920,302.141 501.287,265.956 511.321 L 200.167 529.565 200.081 503.798 L 199.996 478.030 198.915 477.727 C 198.320 477.561,175.258 471.159,147.667 463.501 C 120.075 455.842,97.377 449.467,97.228 449.333 C 97.032 449.157,90.000 372.868,90.000 370.921 C 90.000 370.781,101.362 370.667,115.250 370.667 L 140.500 370.667 142.273 390.579 C 143.249 401.531,144.074 410.506,144.107 410.525 C 144.447 410.718,199.100 425.333,199.483 425.333 C 199.947 425.333,200.000 421.278,200.000 385.667 L 200.000 346.000 143.990 346.000 C 99.485 346.000,87.948 345.914,87.826 345.583 C 87.669 345.156,83.333 297.360,83.333 296.056 L 83.333 295.333 141.667 295.333 L 200.000 295.333 200.000 270.000 L 200.000 244.667 139.490 244.667 C 91.378 244.667,78.950 244.581,78.838 244.250 C 78.698 243.833,74.330 196.018,74.332 194.917 C 74.333 194.363,77.548 194.333,137.167 194.333 L 200.000 194.333 200.000 169.333 L 200.000 144.333 281.635 144.333 L 363.270 144.333 363.123 145.583 " stroke="none" fill="#244ce4" fill-rule="evenodd"></path><path id="path2" d="M94.000 38.168 L 94.000 76.337 124.417 76.252 L 154.833 76.167 154.921 63.417 L 155.008 50.667 137.337 50.667 L 119.667 50.667 119.667 38.170 L 119.667 25.673 137.250 25.586 L 154.833 25.500 154.921 12.750 L 155.008 0.000 124.504 0.000 L 94.000 0.000 94.000 38.168 M166.667 24.833 L 166.667 49.667 184.333 49.667 L 202.000 49.667 202.000 51.833 L 202.000 54.000 184.333 54.000 L 166.667 54.000 166.667 65.667 L 166.667 77.333 197.167 77.333 L 227.667 77.333 227.667 51.833 L 227.667 26.333 210.000 26.333 L 192.333 26.333 192.333 24.333 L 192.333 22.333 210.000 22.333 L 227.667 22.333 227.667 11.167 L 227.667 0.000 197.167 0.000 L 166.667 0.000 166.667 24.833 M239.333 24.833 L 239.333 49.667 257.000 49.667 L 274.667 49.667 274.667 51.833 L 274.667 54.000 257.000 54.000 L 239.333 54.000 239.333 65.667 L 239.333 77.333 269.833 77.333 L 300.333 77.333 300.333 51.833 L 300.333 26.333 282.667 26.333 L 265.000 26.333 265.000 24.333 L 265.000 22.333 282.667 22.333 L 300.333 22.333 300.333 11.167 L 300.333 0.000 269.833 0.000 L 239.333 0.000 239.333 24.833 " stroke="none" fill="#040404" fill-rule="evenodd"></path><path id="path3" d="M200.000 169.333 L 200.000 194.333 262.500 194.333 L 325.000 194.333 325.000 195.208 C 325.000 195.689,323.049 217.926,320.664 244.625 C 318.279 271.323,313.195 328.243,309.367 371.114 C 305.538 413.985,302.277 449.177,302.119 449.319 C 301.962 449.460,278.958 455.910,251.000 463.651 C 223.042 471.393,200.128 477.764,200.081 477.810 C 200.034 477.856,200.034 489.519,200.081 503.729 L 200.167 529.565 265.956 511.321 C 302.141 501.287,331.843 492.920,331.962 492.728 C 332.081 492.536,332.966 483.556,333.928 472.773 C 341.412 388.948,349.784 295.052,355.826 227.167 C 359.759 182.983,363.043 146.271,363.123 145.583 L 363.270 144.333 281.635 144.333 L 200.000 144.333 200.000 169.333 M109.083 244.583 C 125.721 244.631,152.946 244.631,169.583 244.583 C 186.221 244.536,172.608 244.496,139.333 244.496 C 106.058 244.496,92.446 244.536,109.083 244.583 M200.000 270.000 L 200.000 295.333 232.833 295.333 L 265.667 295.333 265.667 294.583 C 265.668 294.171,266.642 282.883,267.833 269.500 C 269.023 256.117,269.998 245.054,269.999 244.917 C 269.999 244.779,254.250 244.667,235.000 244.667 L 200.000 244.667 200.000 270.000 M112.443 295.583 C 128.545 295.631,154.795 295.631,170.776 295.583 C 186.758 295.535,173.583 295.496,141.500 295.496 C 109.417 295.496,96.341 295.535,112.443 295.583 M143.917 345.917 L 200.000 346.002 200.000 385.640 C 200.000 407.441,199.887 425.341,199.750 425.418 C 199.612 425.494,199.663 425.521,199.862 425.477 C 200.929 425.239,255.183 410.564,255.273 410.489 C 255.408 410.375,260.990 348.202,260.996 346.750 L 261.000 345.667 174.417 345.749 C 108.134 345.812,100.983 345.851,143.917 345.917 " stroke="none" fill="#2c63f3" fill-rule="evenodd"></path><path id="path4" d="M74.411 196.000 C 74.411 196.642,74.479 196.904,74.563 196.583 C 74.647 196.262,74.647 195.737,74.563 195.417 C 74.479 195.096,74.411 195.358,74.411 196.000 M324.744 197.000 C 324.744 197.642,324.813 197.904,324.896 197.583 C 324.980 197.262,324.980 196.737,324.896 196.417 C 324.813 196.096,324.744 196.358,324.744 197.000 M74.744 199.667 C 74.744 200.308,74.813 200.571,74.896 200.250 C 74.980 199.929,74.980 199.404,74.896 199.083 C 74.813 198.762,74.744 199.025,74.744 199.667 M75.077 203.333 C 75.077 203.975,75.146 204.237,75.230 203.917 C 75.314 203.596,75.314 203.071,75.230 202.750 C 75.146 202.429,75.077 202.692,75.077 203.333 M75.411 207.000 C 75.411 207.642,75.479 207.904,75.563 207.583 C 75.647 207.262,75.647 206.737,75.563 206.417 C 75.479 206.096,75.411 206.358,75.411 207.000 M75.744 210.667 C 75.744 211.308,75.813 211.571,75.896 211.250 C 75.980 210.929,75.980 210.404,75.896 210.083 C 75.813 209.762,75.744 210.025,75.744 210.667 M323.411 212.000 C 323.411 212.642,323.479 212.904,323.563 212.583 C 323.647 212.262,323.647 211.737,323.563 211.417 C 323.479 211.096,323.411 211.358,323.411 212.000 M76.077 214.333 C 76.077 214.975,76.146 215.237,76.230 214.917 C 76.314 214.596,76.314 214.071,76.230 213.750 C 76.146 213.429,76.077 213.692,76.077 214.333 M76.411 218.000 C 76.411 218.642,76.479 218.904,76.563 218.583 C 76.647 218.262,76.647 217.737,76.563 217.417 C 76.479 217.096,76.411 217.358,76.411 218.000 M76.744 221.667 C 76.744 222.308,76.813 222.571,76.896 222.250 C 76.980 221.929,76.980 221.404,76.896 221.083 C 76.813 220.762,76.744 221.025,76.744 221.667 M77.077 225.333 C 77.077 225.975,77.146 226.237,77.230 225.917 C 77.314 225.596,77.314 225.071,77.230 224.750 C 77.146 224.429,77.077 224.692,77.077 225.333 M77.411 229.000 C 77.411 229.642,77.479 229.904,77.563 229.583 C 77.647 229.262,77.647 228.737,77.563 228.417 C 77.479 228.096,77.411 228.358,77.411 229.000 M321.744 230.667 C 321.744 231.308,321.813 231.571,321.896 231.250 C 321.980 230.929,321.980 230.404,321.896 230.083 C 321.813 229.762,321.744 230.025,321.744 230.667 M77.744 232.667 C 77.744 233.308,77.813 233.571,77.896 233.250 C 77.980 232.929,77.980 232.404,77.896 232.083 C 77.813 231.762,77.744 232.025,77.744 232.667 M78.077 236.333 C 78.077 236.975,78.146 237.237,78.230 236.917 C 78.314 236.596,78.314 236.071,78.230 235.750 C 78.146 235.429,78.077 235.692,78.077 236.333 M78.411 240.000 C 78.411 240.642,78.479 240.904,78.563 240.583 C 78.647 240.262,78.647 239.737,78.563 239.417 C 78.479 239.096,78.411 239.358,78.411 240.000 M212.167 244.579 C 245.473 244.808,270.333 244.810,270.333 244.583 C 270.333 244.446,254.396 244.369,234.917 244.413 C 215.438 244.456,205.200 244.531,212.167 244.579 M320.411 245.667 C 320.411 246.308,320.479 246.571,320.563 246.250 C 320.647 245.929,320.647 245.404,320.563 245.083 C 320.479 244.762,320.411 245.025,320.411 245.667 M269.077 255.333 C 269.077 255.975,269.146 256.237,269.230 255.917 C 269.314 255.596,269.314 255.071,269.230 254.750 C 269.146 254.429,269.077 254.692,269.077 255.333 M318.744 264.333 C 318.744 264.975,318.813 265.237,318.896 264.917 C 318.980 264.596,318.980 264.071,318.896 263.750 C 318.813 263.429,318.744 263.692,318.744 264.333 M267.744 270.333 C 267.744 270.975,267.813 271.237,267.896 270.917 C 267.980 270.596,267.980 270.071,267.896 269.750 C 267.813 269.429,267.744 269.692,267.744 270.333 M317.077 283.000 C 317.077 283.642,317.146 283.904,317.230 283.583 C 317.314 283.262,317.314 282.737,317.230 282.417 C 317.146 282.096,317.077 282.358,317.077 283.000 M216.083 295.583 C 225.204 295.633,240.129 295.633,249.250 295.583 C 258.371 295.534,250.908 295.494,232.667 295.494 C 214.425 295.494,206.962 295.534,216.083 295.583 M84.411 308.333 C 84.411 308.975,84.479 309.237,84.563 308.917 C 84.647 308.596,84.647 308.071,84.563 307.750 C 84.479 307.429,84.411 307.692,84.411 308.333 M84.744 312.000 C 84.744 312.642,84.813 312.904,84.896 312.583 C 84.980 312.262,84.980 311.737,84.896 311.417 C 84.813 311.096,84.744 311.358,84.744 312.000 M314.411 312.667 C 314.411 313.308,314.479 313.571,314.563 313.250 C 314.647 312.929,314.647 312.404,314.563 312.083 C 314.479 311.762,314.411 312.025,314.411 312.667 M85.077 315.667 C 85.077 316.308,85.146 316.571,85.230 316.250 C 85.314 315.929,85.314 315.404,85.230 315.083 C 85.146 314.762,85.077 315.025,85.077 315.667 M86.411 330.667 C 86.411 331.308,86.479 331.571,86.563 331.250 C 86.647 330.929,86.647 330.404,86.563 330.083 C 86.479 329.762,86.411 330.025,86.411 330.667 M312.744 331.333 C 312.744 331.975,312.813 332.237,312.896 331.917 C 312.980 331.596,312.980 331.071,312.896 330.750 C 312.813 330.429,312.744 330.692,312.744 331.333 M86.744 334.333 C 86.744 334.975,86.813 335.237,86.896 334.917 C 86.980 334.596,86.980 334.071,86.896 333.750 C 86.813 333.429,86.744 333.692,86.744 334.333 M87.077 338.000 C 87.077 338.642,87.146 338.904,87.230 338.583 C 87.314 338.262,87.314 337.737,87.230 337.417 C 87.146 337.096,87.077 337.358,87.077 338.000 M311.077 350.000 C 311.077 350.642,311.146 350.904,311.230 350.583 C 311.314 350.262,311.314 349.738,311.230 349.417 C 311.146 349.096,311.077 349.358,311.077 350.000 M260.744 350.333 C 260.744 350.975,260.813 351.238,260.896 350.917 C 260.980 350.596,260.980 350.071,260.896 349.750 C 260.813 349.429,260.744 349.692,260.744 350.333 M309.411 368.667 C 309.411 369.308,309.479 369.571,309.563 369.250 C 309.647 368.929,309.647 368.404,309.563 368.083 C 309.479 367.762,309.411 368.025,309.411 368.667 M90.077 371.667 C 90.077 372.308,90.146 372.571,90.230 372.250 C 90.314 371.929,90.314 371.404,90.230 371.083 C 90.146 370.762,90.077 371.025,90.077 371.667 M258.744 372.667 C 258.744 373.308,258.813 373.571,258.896 373.250 C 258.980 372.929,258.980 372.404,258.896 372.083 C 258.813 371.762,258.744 372.025,258.744 372.667 M90.411 375.333 C 90.411 375.975,90.479 376.238,90.563 375.917 C 90.647 375.596,90.647 375.071,90.563 374.750 C 90.479 374.429,90.411 374.692,90.411 375.333 M140.744 376.000 C 140.744 376.642,140.813 376.904,140.896 376.583 C 140.980 376.262,140.980 375.738,140.896 375.417 C 140.813 375.096,140.744 375.358,140.744 376.000 M141.077 379.667 C 141.077 380.308,141.146 380.571,141.230 380.250 C 141.314 379.929,141.314 379.404,141.230 379.083 C 141.146 378.762,141.077 379.025,141.077 379.667 M141.411 383.333 C 141.411 383.975,141.479 384.238,141.563 383.917 C 141.647 383.596,141.647 383.071,141.563 382.750 C 141.479 382.429,141.411 382.692,141.411 383.333 M308.077 383.667 C 308.077 384.308,308.146 384.571,308.230 384.250 C 308.314 383.929,308.314 383.404,308.230 383.083 C 308.146 382.762,308.077 383.025,308.077 383.667 M91.744 390.333 C 91.744 390.975,91.813 391.238,91.896 390.917 C 91.980 390.596,91.980 390.071,91.896 389.750 C 91.813 389.429,91.744 389.692,91.744 390.333 M257.077 391.333 C 257.077 391.975,257.146 392.238,257.230 391.917 C 257.314 391.596,257.314 391.071,257.230 390.750 C 257.146 390.429,257.077 390.692,257.077 391.333 M92.077 394.000 C 92.077 394.642,92.146 394.904,92.230 394.583 C 92.314 394.262,92.314 393.738,92.230 393.417 C 92.146 393.096,92.077 393.358,92.077 394.000 M142.411 394.667 C 142.411 395.308,142.479 395.571,142.563 395.250 C 142.647 394.929,142.647 394.404,142.563 394.083 C 142.479 393.762,142.411 394.025,142.411 394.667 M142.744 398.333 C 142.744 398.975,142.813 399.238,142.896 398.917 C 142.980 398.596,142.980 398.071,142.896 397.750 C 142.813 397.429,142.744 397.692,142.744 398.333 M143.077 402.000 C 143.077 402.642,143.146 402.904,143.230 402.583 C 143.314 402.262,143.314 401.738,143.230 401.417 C 143.146 401.096,143.077 401.358,143.077 402.000 M306.411 402.333 C 306.411 402.975,306.479 403.238,306.563 402.917 C 306.647 402.596,306.647 402.071,306.563 401.750 C 306.479 401.429,306.411 401.692,306.411 402.333 M93.411 409.000 C 93.411 409.642,93.479 409.904,93.563 409.583 C 93.647 409.262,93.647 408.738,93.563 408.417 C 93.479 408.096,93.411 408.358,93.411 409.000 M93.744 412.667 C 93.744 413.308,93.813 413.571,93.896 413.250 C 93.980 412.929,93.980 412.404,93.896 412.083 C 93.813 411.762,93.744 412.025,93.744 412.667 M304.744 421.000 C 304.744 421.642,304.813 421.904,304.896 421.583 C 304.980 421.262,304.980 420.738,304.896 420.417 C 304.813 420.096,304.744 420.358,304.744 421.000 M94.744 424.000 C 94.744 424.642,94.813 424.904,94.896 424.583 C 94.980 424.262,94.980 423.738,94.896 423.417 C 94.813 423.096,94.744 423.358,94.744 424.000 M95.077 427.667 C 95.077 428.308,95.146 428.571,95.230 428.250 C 95.314 427.929,95.314 427.404,95.230 427.083 C 95.146 426.762,95.077 427.025,95.077 427.667 M95.411 431.333 C 95.411 431.975,95.479 432.238,95.563 431.917 C 95.647 431.596,95.647 431.071,95.563 430.750 C 95.479 430.429,95.411 430.692,95.411 431.333 M303.077 439.667 C 303.077 440.308,303.146 440.571,303.230 440.250 C 303.314 439.929,303.314 439.404,303.230 439.083 C 303.146 438.762,303.077 439.025,303.077 439.667 M96.411 442.667 C 96.411 443.308,96.479 443.571,96.563 443.250 C 96.647 442.929,96.647 442.404,96.563 442.083 C 96.479 441.762,96.411 442.025,96.411 442.667 M96.744 446.333 C 96.744 446.975,96.813 447.238,96.896 446.917 C 96.980 446.596,96.980 446.071,96.896 445.750 C 96.813 445.429,96.744 445.692,96.744 446.333 " stroke="none" fill="#5d88f0" fill-rule="evenodd"></path></g></svg>