<svg id="svg" version="1.1" xmlns="http://www.w3.org/2000/svg" xmlns:xlink="http://www.w3.org/1999/xlink" width="400" height="222.22222222222223" viewBox="0, 0, 400,222.22222222222223"><g id="svgg"><path id="path0" d="M201.151 32.349 C 200.989 32.532,200.889 32.769,200.928 32.876 C 200.968 32.983,201.180 32.829,201.399 32.535 C 201.832 31.955,201.631 31.806,201.151 32.349 M165.333 33.667 C 165.333 33.850,165.433 34.000,165.556 34.000 C 165.678 34.000,165.778 33.850,165.778 33.667 C 165.778 33.483,165.678 33.333,165.556 33.333 C 165.433 33.333,165.333 33.483,165.333 33.667 M200.962 35.444 C 200.963 36.300,201.003 36.623,201.051 36.162 C 201.099 35.701,201.098 35.001,201.049 34.606 C 201.000 34.212,200.961 34.589,200.962 35.444 M213.333 37.681 C 213.333 38.142,213.841 38.701,214.011 38.426 C 214.118 38.254,214.096 38.004,213.960 37.841 C 213.719 37.551,213.333 37.453,213.333 37.681 M200.973 48.000 C 200.973 49.406,201.009 49.981,201.053 49.278 C 201.097 48.575,201.097 47.425,201.053 46.722 C 201.009 46.019,200.973 46.594,200.973 48.000 M217.627 51.111 C 217.627 51.906,217.667 52.231,217.716 51.833 C 217.766 51.436,217.766 50.786,217.716 50.389 C 217.667 49.992,217.627 50.317,217.627 51.111 M212.276 50.886 C 211.942 51.420,211.931 51.556,212.222 51.556 C 212.344 51.556,212.444 51.395,212.444 51.198 C 212.444 50.978,212.568 50.889,212.766 50.965 C 212.982 51.047,213.047 50.982,212.965 50.766 C 212.797 50.328,212.603 50.362,212.276 50.886 M161.122 51.645 C 160.791 52.265,161.040 52.960,161.378 52.357 C 161.666 51.841,161.785 51.111,161.580 51.111 C 161.486 51.111,161.280 51.352,161.122 51.645 M165.333 53.074 C 165.333 53.339,165.424 53.556,165.536 53.556 C 165.762 53.556,165.728 52.987,165.488 52.747 C 165.403 52.662,165.333 52.809,165.333 53.074 M229.333 54.000 C 229.333 54.122,229.483 54.222,229.667 54.222 C 229.850 54.222,230.000 54.122,230.000 54.000 C 230.000 53.878,229.850 53.778,229.667 53.778 C 229.483 53.778,229.333 53.878,229.333 54.000 M218.667 54.444 C 218.667 54.689,218.767 54.889,218.889 54.889 C 219.011 54.889,219.111 54.689,219.111 54.444 C 219.111 54.200,219.011 54.000,218.889 54.000 C 218.767 54.000,218.667 54.200,218.667 54.444 M167.167 54.674 C 166.427 54.971,166.557 55.112,167.536 55.074 C 168.262 55.045,168.356 54.991,168.107 54.742 C 167.769 54.404,167.828 54.408,167.167 54.674 M226.222 54.889 C 225.963 55.056,226.028 55.105,226.513 55.108 C 226.873 55.110,227.079 55.017,227.000 54.889 C 226.829 54.613,226.649 54.613,226.222 54.889 M142.000 64.227 C 142.289 64.410,142.285 64.438,141.970 64.441 C 141.253 64.448,141.127 66.699,141.670 69.805 C 141.854 70.858,142.057 72.858,142.121 74.249 C 142.284 77.807,142.376 78.956,142.673 81.111 C 142.816 82.150,142.963 83.818,143.000 84.819 C 143.037 85.819,143.113 86.719,143.170 86.819 C 143.294 87.036,143.712 91.433,143.989 95.444 C 144.099 97.033,144.448 100.783,144.765 103.778 C 145.083 106.772,145.282 109.497,145.209 109.833 L 145.076 110.444 72.538 110.444 L 0.000 110.444 0.000 166.333 L 0.000 222.222 200.000 222.222 L 400.000 222.222 400.000 166.667 L 400.000 111.111 328.611 111.109 C 289.347 111.107,256.850 111.045,256.395 110.969 C 255.231 110.777,255.115 110.206,255.542 106.799 C 255.679 105.710,255.795 104.360,255.800 103.799 C 255.813 102.351,256.200 98.751,256.480 97.484 C 256.610 96.895,256.747 95.418,256.785 94.203 C 256.859 91.851,256.995 90.151,257.355 87.111 C 257.478 86.072,257.673 84.022,257.790 82.556 C 257.906 81.089,258.105 78.989,258.233 77.889 C 258.360 76.789,258.500 75.339,258.545 74.667 C 258.589 73.994,258.781 71.708,258.971 69.586 C 259.309 65.814,259.307 65.708,258.874 64.860 L 258.431 63.992 200.049 64.004 C 163.155 64.012,141.789 64.094,142.000 64.227 M236.703 88.144 C 237.183 88.579,237.285 92.614,236.890 95.556 C 236.767 96.472,236.512 98.372,236.324 99.778 C 236.135 101.183,235.854 102.461,235.699 102.617 C 235.400 102.918,211.343 103.083,190.333 102.928 C 184.956 102.888,180.381 102.924,180.167 103.007 C 179.669 103.201,179.674 103.673,180.222 109.000 C 180.461 111.322,180.659 113.757,180.662 114.411 C 180.664 115.065,180.828 115.939,181.025 116.355 L 181.384 117.110 207.525 117.055 C 228.426 117.011,233.766 117.057,234.164 117.284 C 234.870 117.688,234.984 118.437,234.581 120.045 C 234.389 120.814,234.176 122.344,234.109 123.444 C 234.042 124.544,233.894 126.294,233.780 127.333 C 233.666 128.372,233.468 130.572,233.339 132.222 C 232.994 136.644,232.683 140.284,232.446 142.667 C 232.331 143.828,232.132 145.978,232.004 147.444 C 231.876 148.911,231.676 151.111,231.559 152.333 C 231.442 153.556,231.229 155.956,231.085 157.667 C 230.714 162.071,230.800 161.954,227.333 162.779 C 225.376 163.246,223.196 163.840,218.333 165.236 C 217.233 165.552,215.733 165.958,215.000 166.138 C 214.267 166.319,213.493 166.562,213.281 166.678 C 213.069 166.794,212.726 166.889,212.519 166.889 C 212.312 166.889,211.811 166.989,211.405 167.111 C 210.999 167.233,210.342 167.420,209.944 167.526 C 209.547 167.631,208.822 167.827,208.333 167.961 C 206.516 168.459,204.526 168.942,203.556 169.121 C 203.006 169.222,202.106 169.407,201.556 169.532 C 199.469 170.004,199.794 170.074,185.111 165.993 C 180.268 164.647,179.613 164.470,175.180 163.317 C 169.328 161.795,169.711 162.504,168.886 151.667 C 168.756 149.956,168.453 146.641,168.212 144.300 C 167.582 138.166,166.925 138.683,175.359 138.674 C 182.554 138.666,183.118 138.768,183.107 140.072 C 183.100 140.879,183.789 146.924,184.023 148.111 C 184.384 149.944,185.109 150.523,188.014 151.298 C 188.923 151.540,190.217 151.895,190.889 152.087 C 199.769 154.620,200.451 154.645,207.000 152.674 C 207.367 152.563,209.217 152.077,211.111 151.592 C 215.293 150.522,215.662 150.384,216.098 149.718 C 216.452 149.178,216.492 148.924,216.884 144.778 C 217.011 143.433,217.323 140.254,217.577 137.713 C 217.991 133.575,218.005 133.040,217.705 132.583 L 217.371 132.073 204.649 131.926 C 197.652 131.844,186.345 131.778,179.523 131.778 L 167.120 131.778 167.007 131.278 C 166.945 131.003,166.695 128.478,166.451 125.667 C 166.207 122.856,165.906 119.506,165.783 118.222 C 165.660 116.939,165.457 114.639,165.332 113.111 C 165.037 109.507,164.743 106.258,164.218 100.778 C 163.389 92.143,163.333 91.465,163.333 90.100 C 163.333 87.946,161.966 88.127,179.201 87.999 C 218.584 87.706,236.269 87.751,236.703 88.144 M110.185 110.833 C 90.670 110.865,58.670 110.865,39.074 110.833 C 19.478 110.802,35.444 110.776,74.556 110.776 C 113.667 110.776,129.700 110.802,110.185 110.833 " stroke="none" fill="#f26936" fill-rule="evenodd"></path><path id="path1" d="M203.800 32.222 C 201.155 32.455,201.333 31.694,201.335 42.747 C 201.336 54.779,201.163 54.217,204.926 54.399 C 209.003 54.595,208.889 54.755,208.889 48.829 C 208.889 45.330,208.953 44.198,209.141 44.385 C 209.279 44.524,210.365 46.064,211.553 47.808 C 212.741 49.552,213.814 51.012,213.936 51.053 C 214.058 51.094,215.178 49.623,216.424 47.786 C 217.671 45.948,218.779 44.444,218.888 44.444 C 218.996 44.444,219.116 46.442,219.154 48.883 C 219.242 54.612,219.040 54.333,223.109 54.333 C 227.136 54.333,226.721 55.630,226.681 43.190 C 226.642 31.105,226.859 32.099,224.272 32.145 C 219.720 32.226,218.344 32.977,216.010 36.652 C 214.995 38.249,214.103 39.555,214.027 39.555 C 213.807 39.554,212.510 37.526,212.128 36.587 C 211.225 34.362,209.268 32.667,207.222 32.339 C 205.610 32.081,205.458 32.075,203.800 32.222 M152.718 32.567 L 152.222 32.914 152.222 43.235 C 152.222 55.633,151.795 54.350,155.943 54.398 C 159.911 54.445,160.379 53.980,160.070 50.289 C 159.827 47.371,160.200 47.037,163.741 47.014 C 166.536 46.995,166.667 47.145,166.667 50.369 C 166.667 54.043,166.829 54.210,170.556 54.382 C 172.827 54.487,173.043 54.461,173.611 54.009 L 174.222 53.523 174.222 43.776 C 174.222 31.557,174.519 32.397,170.188 32.357 C 166.749 32.326,166.818 32.259,166.654 35.815 C 166.504 39.092,166.409 39.215,163.864 39.454 C 160.484 39.771,160.000 39.307,160.000 35.753 C 160.000 32.460,159.898 32.399,154.107 32.243 C 153.616 32.230,152.991 32.375,152.718 32.567 M177.678 32.576 C 177.266 32.988,177.187 37.352,177.567 38.720 C 177.899 39.916,178.345 40.071,180.926 39.886 C 184.215 39.651,184.000 39.190,184.000 46.486 C 184.000 54.612,183.912 54.444,188.187 54.444 C 191.841 54.444,191.556 55.050,191.556 47.311 L 191.556 40.869 192.101 40.323 C 192.616 39.808,192.787 39.778,195.168 39.778 C 196.832 39.778,197.779 39.687,197.956 39.511 C 198.273 39.194,198.329 33.179,198.019 32.691 C 197.707 32.197,178.166 32.088,177.678 32.576 M231.163 32.437 C 230.275 32.821,230.222 33.439,230.222 43.448 C 230.222 53.542,230.269 54.063,231.194 54.311 C 231.919 54.506,245.298 54.442,246.541 54.238 C 248.267 53.955,248.444 53.592,248.444 50.343 C 248.444 46.658,248.795 46.889,243.184 46.889 C 237.424 46.889,238.006 47.636,237.978 40.205 C 237.953 33.749,237.918 33.458,237.074 32.828 C 236.406 32.329,232.076 32.043,231.163 32.437 " stroke="none" fill="#090b07" fill-rule="evenodd"></path><path id="path2" d="M178.905 88.168 C 165.442 88.221,164.333 88.254,163.933 88.613 C 163.411 89.080,163.430 89.525,164.429 100.111 C 165.151 107.762,165.134 107.571,166.330 121.333 C 166.771 126.406,167.175 130.764,167.227 131.019 L 167.323 131.482 192.252 131.627 C 221.103 131.795,218.361 131.536,218.153 134.080 C 217.849 137.821,216.872 148.174,216.758 148.867 C 216.561 150.066,215.682 150.757,213.777 151.210 C 212.861 151.428,209.611 152.285,206.556 153.114 L 201.000 154.621 199.111 154.333 C 196.872 153.991,196.556 153.919,193.667 153.098 C 192.444 152.751,190.246 152.152,188.780 151.767 C 183.850 150.473,183.852 150.476,183.190 143.679 C 182.881 140.494,182.722 139.611,182.404 139.293 C 181.940 138.829,169.481 138.675,168.644 139.123 C 168.089 139.420,168.097 139.939,168.763 147.149 C 169.060 150.367,169.418 154.550,169.559 156.444 C 169.925 161.365,170.190 161.755,173.778 162.666 C 174.817 162.930,180.932 164.588,187.367 166.351 C 193.803 168.113,199.353 169.556,199.701 169.555 C 200.639 169.555,207.714 167.830,214.778 165.879 C 218.200 164.934,222.996 163.625,225.435 162.971 C 227.875 162.316,230.008 161.643,230.175 161.476 C 230.393 161.258,230.694 158.736,231.232 152.641 C 233.113 131.327,233.385 128.297,233.792 124.222 C 234.029 121.839,234.282 119.487,234.353 118.996 C 234.619 117.148,236.999 117.299,207.475 117.291 C 182.130 117.285,181.347 117.272,180.977 116.863 C 180.695 116.552,180.547 115.794,180.407 113.943 C 180.302 112.569,180.068 110.007,179.886 108.249 C 179.515 104.666,179.469 102.969,179.736 102.803 C 179.998 102.642,180.893 102.637,209.311 102.653 C 226.762 102.662,235.266 102.592,235.453 102.438 C 236.249 101.776,237.285 89.050,236.589 88.472 C 236.271 88.208,207.442 88.056,178.905 88.168 " stroke="none" fill="#f3f2f4" fill-rule="evenodd"></path><path id="path3" d="M168.828 32.160 C 169.223 32.209,169.923 32.210,170.384 32.162 C 170.845 32.114,170.522 32.074,169.667 32.073 C 168.811 32.072,168.434 32.111,168.828 32.160 M232.611 32.161 C 233.008 32.210,233.658 32.210,234.056 32.161 C 234.453 32.111,234.128 32.071,233.333 32.071 C 232.539 32.071,232.214 32.111,232.611 32.161 M152.102 42.556 C 152.102 47.811,152.131 49.929,152.166 47.263 C 152.202 44.596,152.202 40.296,152.166 37.707 C 152.131 35.118,152.102 37.300,152.102 42.556 M238.079 36.778 C 238.078 37.878,238.116 38.356,238.162 37.840 C 238.209 37.324,238.210 36.424,238.164 35.840 C 238.118 35.256,238.080 35.678,238.079 36.778 M181.722 39.935 C 181.997 39.988,182.447 39.988,182.722 39.935 C 182.997 39.882,182.772 39.838,182.222 39.838 C 181.672 39.838,181.447 39.882,181.722 39.935 M192.584 39.954 C 192.524 40.051,193.143 40.095,193.960 40.053 C 196.153 39.939,196.341 39.833,194.402 39.804 C 193.462 39.789,192.644 39.857,192.584 39.954 M178.944 40.153 C 179.158 40.209,179.508 40.209,179.722 40.153 C 179.936 40.097,179.761 40.052,179.333 40.052 C 178.906 40.052,178.731 40.097,178.944 40.153 M183.838 42.667 C 183.838 43.217,183.882 43.442,183.935 43.167 C 183.988 42.892,183.988 42.442,183.935 42.167 C 183.882 41.892,183.838 42.117,183.838 42.667 M238.064 45.000 C 238.065 45.611,238.108 45.835,238.159 45.497 C 238.211 45.159,238.209 44.659,238.156 44.386 C 238.104 44.113,238.062 44.389,238.064 45.000 M183.863 48.889 C 183.863 50.417,183.899 51.042,183.942 50.278 C 183.986 49.514,183.986 48.264,183.942 47.500 C 183.899 46.736,183.863 47.361,183.863 48.889 M240.711 46.832 C 241.774 46.873,243.574 46.873,244.711 46.832 C 245.848 46.792,244.978 46.759,242.778 46.758 C 240.578 46.758,239.648 46.791,240.711 46.832 M163.500 47.046 C 163.775 47.099,164.225 47.099,164.500 47.046 C 164.775 46.993,164.550 46.949,164.000 46.949 C 163.450 46.949,163.225 46.993,163.500 47.046 M208.960 49.778 C 208.960 50.572,209.000 50.897,209.050 50.500 C 209.099 50.103,209.099 49.453,209.050 49.056 C 209.000 48.658,208.960 48.983,208.960 49.778 M166.522 50.444 C 166.522 51.483,166.560 51.908,166.607 51.389 C 166.654 50.869,166.654 50.019,166.607 49.500 C 166.560 48.981,166.522 49.406,166.522 50.444 M170.500 54.606 C 170.958 54.654,171.708 54.654,172.167 54.606 C 172.625 54.558,172.250 54.519,171.333 54.519 C 170.417 54.519,170.042 54.558,170.500 54.606 M186.167 54.601 C 186.442 54.654,186.892 54.654,187.167 54.601 C 187.442 54.548,187.217 54.505,186.667 54.505 C 186.117 54.505,185.892 54.548,186.167 54.601 M188.833 54.601 C 189.108 54.654,189.558 54.654,189.833 54.601 C 190.108 54.548,189.883 54.505,189.333 54.505 C 188.783 54.505,188.558 54.548,188.833 54.601 M204.944 54.606 C 205.403 54.654,206.153 54.654,206.611 54.606 C 207.069 54.558,206.694 54.519,205.778 54.519 C 204.861 54.519,204.486 54.558,204.944 54.606 M223.948 54.605 C 224.348 54.655,224.948 54.654,225.282 54.603 C 225.616 54.553,225.289 54.512,224.556 54.513 C 223.822 54.515,223.549 54.556,223.948 54.605 M171.849 88.167 C 175.861 88.201,182.361 88.201,186.294 88.167 C 190.227 88.133,186.944 88.105,179.000 88.105 C 171.056 88.105,167.838 88.133,171.849 88.167 M195.157 88.165 C 195.977 88.207,197.377 88.207,198.268 88.165 C 199.160 88.123,198.489 88.088,196.778 88.088 C 195.067 88.087,194.337 88.122,195.157 88.165 M216.722 88.167 C 220.114 88.201,225.664 88.201,229.056 88.167 C 232.447 88.132,229.672 88.104,222.889 88.104 C 216.106 88.104,213.331 88.132,216.722 88.167 M236.395 88.346 C 236.712 88.568,236.901 88.946,236.922 89.401 C 236.955 90.101,236.957 90.102,237.050 89.480 C 237.145 88.846,236.624 88.000,236.138 88.000 C 236.008 88.000,236.123 88.156,236.395 88.346 M163.607 92.667 C 163.607 93.094,163.653 93.269,163.709 93.056 C 163.765 92.842,163.765 92.492,163.709 92.278 C 163.653 92.064,163.607 92.239,163.607 92.667 M236.730 93.889 C 236.732 94.500,236.775 94.724,236.826 94.386 C 236.877 94.048,236.876 93.548,236.823 93.275 C 236.770 93.001,236.729 93.278,236.730 93.889 M163.829 94.667 C 163.829 95.094,163.875 95.269,163.931 95.056 C 163.987 94.842,163.987 94.492,163.931 94.278 C 163.875 94.064,163.829 94.239,163.829 94.667 M236.496 96.222 C 236.496 96.650,236.542 96.825,236.598 96.611 C 236.654 96.397,236.654 96.047,236.598 95.833 C 236.542 95.619,236.496 95.794,236.496 96.222 M164.052 97.333 C 164.052 97.761,164.097 97.936,164.153 97.722 C 164.209 97.508,164.209 97.158,164.153 96.944 C 164.097 96.731,164.052 96.906,164.052 97.333 M164.500 102.111 C 164.503 102.600,164.548 102.774,164.602 102.497 C 164.655 102.221,164.653 101.821,164.597 101.609 C 164.542 101.396,164.498 101.622,164.500 102.111 M208.389 102.833 C 212.575 102.867,219.425 102.867,223.611 102.833 C 227.797 102.799,224.372 102.772,216.000 102.772 C 207.628 102.772,204.203 102.799,208.389 102.833 M233.614 102.826 C 233.952 102.877,234.452 102.876,234.725 102.823 C 234.999 102.770,234.722 102.729,234.111 102.730 C 233.500 102.732,233.276 102.775,233.614 102.826 M164.945 107.000 C 164.947 107.489,164.993 107.663,165.046 107.386 C 165.099 107.110,165.097 106.710,165.042 106.497 C 164.986 106.285,164.942 106.511,164.945 107.000 M179.834 107.444 C 179.836 107.933,179.882 108.107,179.935 107.831 C 179.988 107.554,179.986 107.154,179.930 106.942 C 179.875 106.729,179.831 106.956,179.834 107.444 M165.163 109.111 C 165.163 109.539,165.208 109.714,165.264 109.500 C 165.320 109.286,165.320 108.936,165.264 108.722 C 165.208 108.508,165.163 108.683,165.163 109.111 M165.607 114.222 C 165.607 114.650,165.653 114.825,165.709 114.611 C 165.765 114.397,165.765 114.047,165.709 113.833 C 165.653 113.619,165.607 113.794,165.607 114.222 M180.500 115.222 C 180.503 115.711,180.548 115.885,180.602 115.609 C 180.655 115.332,180.653 114.932,180.597 114.720 C 180.542 114.507,180.498 114.733,180.500 115.222 M165.834 117.000 C 165.836 117.489,165.882 117.663,165.935 117.386 C 165.988 117.110,165.986 116.710,165.930 116.497 C 165.875 116.285,165.831 116.511,165.834 117.000 M194.623 117.277 C 195.882 117.317,197.882 117.317,199.067 117.277 C 200.253 117.237,199.222 117.204,196.778 117.204 C 194.333 117.205,193.364 117.237,194.623 117.277 M216.389 117.278 C 219.475 117.312,224.525 117.312,227.611 117.278 C 230.697 117.243,228.172 117.214,222.000 117.214 C 215.828 117.214,213.303 117.243,216.389 117.278 M234.037 117.667 C 234.241 117.911,234.451 118.411,234.504 118.778 L 234.600 119.444 234.633 118.757 C 234.656 118.289,234.507 117.934,234.167 117.646 C 233.671 117.226,233.670 117.226,234.037 117.667 M166.052 119.333 C 166.052 119.761,166.097 119.936,166.153 119.722 C 166.209 119.508,166.209 119.158,166.153 118.944 C 166.097 118.731,166.052 118.906,166.052 119.333 M234.052 120.889 C 234.052 121.317,234.097 121.492,234.153 121.278 C 234.209 121.064,234.209 120.714,234.153 120.500 C 234.097 120.286,234.052 120.461,234.052 120.889 M166.278 121.889 C 166.281 122.378,166.326 122.552,166.379 122.275 C 166.433 121.999,166.431 121.599,166.375 121.386 C 166.319 121.174,166.276 121.400,166.278 121.889 M233.829 123.111 C 233.829 123.539,233.875 123.714,233.931 123.500 C 233.987 123.286,233.987 122.936,233.931 122.722 C 233.875 122.508,233.829 122.683,233.829 123.111 M166.496 124.222 C 166.496 124.650,166.542 124.825,166.598 124.611 C 166.654 124.397,166.654 124.047,166.598 123.833 C 166.542 123.619,166.496 123.794,166.496 124.222 M233.607 125.778 C 233.607 126.206,233.653 126.381,233.709 126.167 C 233.765 125.953,233.765 125.603,233.709 125.389 C 233.653 125.175,233.607 125.350,233.607 125.778 M166.723 127.000 C 166.725 127.489,166.771 127.663,166.824 127.386 C 166.877 127.110,166.875 126.710,166.819 126.497 C 166.764 126.285,166.720 126.511,166.723 127.000 M233.385 128.222 C 233.385 128.650,233.431 128.825,233.487 128.611 C 233.542 128.397,233.542 128.047,233.487 127.833 C 233.431 127.619,233.385 127.794,233.385 128.222 M233.163 130.889 C 233.163 131.317,233.208 131.492,233.264 131.278 C 233.320 131.064,233.320 130.714,233.264 130.500 C 233.208 130.286,233.163 130.461,233.163 130.889 M178.294 131.722 C 182.550 131.756,189.450 131.756,193.627 131.722 C 197.805 131.688,194.322 131.661,185.889 131.661 C 177.456 131.661,174.038 131.688,178.294 131.722 M232.723 135.889 C 232.725 136.378,232.771 136.552,232.824 136.275 C 232.877 135.999,232.875 135.599,232.819 135.386 C 232.764 135.174,232.720 135.400,232.723 135.889 M232.496 138.222 C 232.496 138.650,232.542 138.825,232.598 138.611 C 232.654 138.397,232.654 138.047,232.598 137.833 C 232.542 137.619,232.496 137.794,232.496 138.222 M168.067 140.667 C 168.067 141.339,168.108 141.614,168.159 141.278 C 168.210 140.942,168.210 140.392,168.159 140.056 C 168.108 139.719,168.067 139.994,168.067 140.667 M182.949 140.889 C 182.949 141.439,182.993 141.664,183.046 141.389 C 183.099 141.114,183.099 140.664,183.046 140.389 C 182.993 140.114,182.949 140.339,182.949 140.889 M217.385 140.889 C 217.385 141.317,217.431 141.492,217.487 141.278 C 217.542 141.064,217.542 140.714,217.487 140.500 C 217.431 140.286,217.385 140.461,217.385 140.889 M232.278 141.000 C 232.281 141.489,232.326 141.663,232.379 141.386 C 232.433 141.110,232.431 140.710,232.375 140.497 C 232.319 140.285,232.276 140.511,232.278 141.000 M168.274 143.111 C 168.274 143.539,168.320 143.714,168.375 143.500 C 168.431 143.286,168.431 142.936,168.375 142.722 C 168.320 142.508,168.274 142.683,168.274 143.111 M232.056 143.222 C 232.059 143.711,232.104 143.885,232.157 143.609 C 232.210 143.332,232.208 142.932,232.153 142.720 C 232.097 142.507,232.054 142.733,232.056 143.222 M183.389 145.444 C 183.392 145.933,183.437 146.107,183.491 145.831 C 183.544 145.554,183.542 145.154,183.486 144.942 C 183.430 144.729,183.387 144.956,183.389 145.444 M168.496 145.556 C 168.496 145.983,168.542 146.158,168.598 145.944 C 168.654 145.731,168.654 145.381,168.598 145.167 C 168.542 144.953,168.496 145.128,168.496 145.556 M216.945 145.889 C 216.947 146.378,216.993 146.552,217.046 146.275 C 217.099 145.999,217.097 145.599,217.042 145.386 C 216.986 145.174,216.942 145.400,216.945 145.889 M231.829 146.000 C 231.829 146.428,231.875 146.603,231.931 146.389 C 231.987 146.175,231.987 145.825,231.931 145.611 C 231.875 145.397,231.829 145.572,231.829 146.000 M168.945 150.333 C 168.947 150.822,168.993 150.996,169.046 150.720 C 169.099 150.443,169.097 150.043,169.042 149.831 C 168.986 149.618,168.942 149.844,168.945 150.333 M231.385 151.111 C 231.385 151.539,231.431 151.714,231.487 151.500 C 231.542 151.286,231.542 150.936,231.487 150.722 C 231.431 150.508,231.385 150.683,231.385 151.111 M169.397 155.889 C 169.399 156.500,169.442 156.724,169.493 156.386 C 169.544 156.048,169.543 155.548,169.490 155.275 C 169.437 155.001,169.395 155.278,169.397 155.889 M230.945 156.111 C 230.947 156.600,230.993 156.774,231.046 156.497 C 231.099 156.221,231.097 155.821,231.042 155.609 C 230.986 155.396,230.942 155.622,230.945 156.111 M230.718 158.444 C 230.718 158.872,230.764 159.047,230.820 158.833 C 230.876 158.619,230.876 158.269,230.820 158.056 C 230.764 157.842,230.718 158.017,230.718 158.444 M169.607 158.667 C 169.607 159.094,169.653 159.269,169.709 159.056 C 169.765 158.842,169.765 158.492,169.709 158.278 C 169.653 158.064,169.607 158.239,169.607 158.667 M175.667 163.333 C 175.911 163.438,176.261 163.524,176.444 163.524 C 176.655 163.524,176.613 163.454,176.333 163.333 C 176.089 163.228,175.739 163.142,175.556 163.142 C 175.345 163.142,175.387 163.213,175.667 163.333 " stroke="none" fill="#e29176" fill-rule="evenodd"></path><path id="path4" d="M0.000 55.222 L 0.000 110.444 72.538 110.444 L 145.076 110.444 145.209 109.833 C 145.282 109.497,145.083 106.772,144.765 103.778 C 144.448 100.783,144.099 97.033,143.989 95.444 C 143.712 91.433,143.294 87.036,143.170 86.819 C 143.113 86.719,143.037 85.819,143.000 84.819 C 142.963 83.818,142.816 82.150,142.673 81.111 C 142.376 78.956,142.284 77.807,142.121 74.249 C 142.057 72.858,141.854 70.858,141.670 69.805 C 141.127 66.699,141.253 64.448,141.970 64.441 C 142.285 64.438,142.289 64.410,142.000 64.227 C 141.789 64.094,163.155 64.012,200.049 64.004 L 258.431 63.992 258.874 64.860 C 259.307 65.708,259.309 65.814,258.971 69.586 C 258.781 71.708,258.589 73.994,258.545 74.667 C 258.500 75.339,258.360 76.789,258.233 77.889 C 258.105 78.989,257.906 81.089,257.790 82.556 C 257.673 84.022,257.478 86.072,257.355 87.111 C 256.995 90.151,256.859 91.851,256.785 94.203 C 256.747 95.418,256.610 96.895,256.480 97.484 C 256.200 98.751,255.813 102.351,255.800 103.799 C 255.795 104.360,255.679 105.710,255.542 106.799 C 255.115 110.206,255.231 110.777,256.395 110.969 C 256.850 111.045,289.347 111.107,328.611 111.109 L 400.000 111.111 400.000 55.556 L 400.000 0.000 200.000 0.000 L 0.000 0.000 0.000 55.222 M157.833 32.331 C 158.414 32.331,158.889 32.412,158.889 32.511 C 158.889 32.611,158.964 32.653,159.056 32.604 C 159.699 32.260,160.038 33.414,160.051 36.000 C 160.058 37.161,160.122 38.211,160.195 38.333 C 160.267 38.456,160.328 38.656,160.330 38.778 C 160.332 38.900,160.608 39.032,160.944 39.070 C 161.281 39.109,161.556 39.234,161.556 39.348 C 161.556 39.634,163.940 39.611,164.117 39.323 C 164.196 39.195,164.552 39.136,164.908 39.193 C 165.286 39.252,165.556 39.195,165.556 39.055 C 165.556 38.923,165.621 38.881,165.702 38.961 C 165.929 39.188,166.432 38.670,166.305 38.340 C 166.243 38.178,166.299 37.979,166.429 37.898 C 166.570 37.811,166.667 36.905,166.667 35.664 C 166.667 33.426,166.945 32.444,167.578 32.444 C 167.796 32.444,168.036 32.344,168.111 32.222 C 168.295 31.924,171.046 31.937,171.231 32.237 C 171.312 32.367,171.645 32.445,171.972 32.411 C 172.971 32.306,173.934 32.838,174.082 33.578 C 174.178 34.058,174.283 48.621,174.227 53.624 C 174.224 53.845,174.128 53.968,174.014 53.897 C 173.899 53.826,173.724 53.913,173.625 54.091 C 173.526 54.268,173.394 54.414,173.333 54.414 C 173.272 54.415,173.046 54.483,172.830 54.566 C 172.615 54.649,171.765 54.656,170.941 54.581 C 167.913 54.308,167.305 54.184,167.167 53.810 C 167.093 53.609,166.925 53.373,166.794 53.286 C 166.647 53.188,166.556 52.143,166.556 50.564 C 166.556 49.154,166.464 48.000,166.352 48.000 C 166.240 48.000,166.214 47.934,166.294 47.854 C 166.495 47.653,165.997 47.087,165.753 47.238 C 165.644 47.305,165.441 47.289,165.301 47.202 C 165.161 47.115,164.336 47.066,163.467 47.093 C 162.599 47.120,161.664 47.145,161.389 47.150 C 161.114 47.154,160.889 47.253,160.889 47.370 C 160.889 47.486,160.773 47.510,160.632 47.423 C 160.483 47.331,160.436 47.362,160.519 47.496 C 160.597 47.623,160.508 47.855,160.321 48.011 C 160.039 48.244,159.997 48.734,160.078 50.806 C 160.209 54.122,159.884 54.536,157.222 54.451 C 155.105 54.384,154.597 54.394,153.911 54.518 C 153.411 54.609,153.130 54.498,152.654 54.022 L 152.042 53.409 152.011 43.284 L 151.981 33.158 152.602 32.670 C 153.057 32.312,153.413 32.213,153.940 32.299 C 154.335 32.363,154.721 32.315,154.797 32.192 C 154.883 32.052,155.278 32.037,155.856 32.151 C 156.363 32.251,157.253 32.332,157.833 32.331 M179.897 32.351 C 180.611 32.172,189.102 32.139,189.278 32.315 C 189.467 32.504,194.819 32.448,196.063 32.243 C 196.648 32.147,197.179 32.153,197.243 32.256 C 197.307 32.360,197.560 32.444,197.804 32.444 C 198.048 32.444,198.187 32.544,198.111 32.667 C 198.036 32.789,198.055 32.889,198.154 32.889 C 198.502 32.889,198.296 39.132,197.936 39.493 C 197.712 39.717,196.950 39.853,195.526 39.925 C 191.205 40.141,191.589 39.405,191.632 47.387 L 191.667 53.758 190.889 54.189 C 190.052 54.652,185.909 54.837,185.653 54.423 C 185.585 54.312,185.342 54.222,185.113 54.222 C 184.884 54.222,184.633 54.022,184.556 53.778 C 184.478 53.533,184.337 53.333,184.243 53.333 C 183.961 53.333,183.899 51.946,183.918 46.135 C 183.941 39.353,183.963 39.388,180.057 40.091 C 178.941 40.292,177.877 39.909,177.661 39.229 C 177.272 38.002,177.252 37.736,177.331 34.778 L 177.390 32.556 178.084 32.307 C 178.541 32.143,178.871 32.132,179.053 32.276 C 179.204 32.396,179.584 32.430,179.897 32.351 M201.399 32.535 C 201.180 32.829,200.968 32.983,200.928 32.876 C 200.847 32.655,201.354 32.021,201.621 32.008 C 201.719 32.004,201.619 32.241,201.399 32.535 M207.556 32.316 C 207.861 32.366,208.136 32.416,208.167 32.426 C 208.197 32.436,208.276 32.441,208.341 32.437 C 208.407 32.432,208.615 32.583,208.804 32.772 C 208.992 32.961,209.239 33.058,209.351 32.989 C 209.464 32.919,209.556 32.971,209.556 33.103 C 209.556 33.236,209.806 33.439,210.111 33.556 C 210.417 33.672,210.667 33.914,210.667 34.093 C 210.667 34.272,210.866 34.559,211.110 34.730 C 211.353 34.900,211.489 35.104,211.411 35.181 C 211.333 35.259,211.434 35.386,211.635 35.463 C 211.836 35.540,212.000 35.787,212.000 36.011 C 212.000 36.235,212.102 36.481,212.226 36.558 C 212.350 36.635,212.399 36.782,212.335 36.886 C 212.271 36.990,212.376 37.233,212.569 37.427 C 212.763 37.620,212.838 37.781,212.738 37.785 C 212.638 37.788,212.733 37.894,212.949 38.020 C 213.166 38.146,213.292 38.332,213.229 38.433 C 213.167 38.534,213.268 38.742,213.453 38.896 C 213.848 39.224,215.013 38.825,214.777 38.443 C 214.702 38.322,214.746 38.222,214.876 38.222 C 215.005 38.222,215.111 38.072,215.111 37.889 C 215.111 37.706,215.217 37.556,215.346 37.556 C 215.476 37.556,215.520 37.455,215.443 37.332 C 215.367 37.209,215.461 37.048,215.651 36.975 C 215.842 36.902,215.942 36.752,215.874 36.642 C 215.805 36.532,215.905 36.382,216.096 36.308 C 216.286 36.235,216.387 36.086,216.319 35.977 C 216.251 35.867,216.290 35.778,216.404 35.778 C 216.519 35.778,216.943 35.233,217.346 34.567 C 217.750 33.901,218.154 33.402,218.244 33.458 C 218.335 33.514,218.560 33.409,218.744 33.224 C 218.928 33.040,219.281 32.889,219.527 32.889 C 219.773 32.889,220.025 32.805,220.089 32.703 C 220.152 32.601,220.569 32.503,221.016 32.487 C 221.464 32.470,221.943 32.364,222.081 32.251 C 222.450 31.951,225.811 32.083,226.333 32.419 C 226.768 32.698,226.777 32.928,226.742 43.139 C 226.705 53.835,226.673 54.222,225.849 54.222 C 225.673 54.222,225.588 54.318,225.661 54.435 C 225.742 54.566,224.815 54.630,223.229 54.601 C 221.820 54.576,220.667 54.481,220.667 54.389 C 220.667 54.297,220.590 54.247,220.496 54.278 C 220.262 54.354,219.091 53.416,219.131 53.185 C 219.215 52.707,219.047 44.380,218.960 44.710 C 218.897 44.949,218.731 45.037,218.505 44.950 C 218.285 44.865,218.205 44.903,218.296 45.050 C 218.376 45.180,218.286 45.347,218.096 45.420 C 217.905 45.493,217.812 45.654,217.889 45.778 C 217.965 45.902,217.872 46.063,217.681 46.136 C 217.490 46.210,217.333 46.409,217.333 46.579 C 217.333 46.750,217.233 46.889,217.111 46.889 C 216.989 46.889,216.889 47.039,216.889 47.222 C 216.889 47.406,216.789 47.556,216.667 47.556 C 216.544 47.556,216.444 47.706,216.444 47.889 C 216.444 48.072,216.339 48.222,216.209 48.222 C 216.080 48.222,216.036 48.323,216.112 48.446 C 216.188 48.569,216.094 48.730,215.903 48.803 C 215.712 48.876,215.556 49.065,215.556 49.222 C 215.556 49.379,215.391 49.571,215.190 49.648 C 214.990 49.725,214.879 49.842,214.945 49.908 C 215.011 49.974,214.837 50.273,214.559 50.573 C 213.953 51.226,213.477 51.106,213.104 50.206 C 212.956 49.848,212.747 49.556,212.640 49.556 C 212.532 49.556,212.444 49.406,212.444 49.222 C 212.444 49.039,212.344 48.889,212.222 48.889 C 212.100 48.889,212.000 48.739,212.000 48.556 C 212.000 48.372,211.900 48.222,211.778 48.222 C 211.656 48.222,211.556 48.072,211.556 47.889 C 211.556 47.706,211.462 47.556,211.348 47.556 C 211.234 47.556,211.081 47.367,211.008 47.138 C 210.935 46.908,210.704 46.516,210.493 46.267 C 209.499 45.091,209.376 44.920,209.463 44.834 C 209.514 44.783,209.417 44.741,209.247 44.741 C 208.994 44.741,208.941 45.468,208.956 48.759 C 208.975 52.753,208.817 54.341,208.426 54.100 C 208.314 54.031,208.222 54.063,208.222 54.172 C 208.222 54.924,203.051 54.578,202.016 53.756 L 201.344 53.222 201.343 43.092 L 201.343 32.962 202.172 32.518 C 202.973 32.089,205.584 31.991,207.556 32.316 M235.889 32.323 C 236.256 32.371,236.581 32.418,236.611 32.427 C 236.642 32.437,236.723 32.439,236.792 32.433 C 237.019 32.412,237.778 33.507,237.778 33.855 C 237.778 34.043,237.864 34.249,237.969 34.314 C 238.074 34.379,238.138 37.085,238.113 40.327 C 238.077 44.820,238.132 46.277,238.343 46.453 C 238.514 46.595,240.337 46.686,243.075 46.691 C 246.653 46.698,247.580 46.762,247.791 47.016 C 247.936 47.191,248.167 47.333,248.305 47.333 C 248.686 47.333,248.549 53.325,248.159 53.714 C 247.608 54.265,245.238 54.442,238.444 54.440 C 230.967 54.438,230.830 54.424,230.467 53.628 C 230.022 52.651,230.143 33.232,230.597 32.853 C 231.577 32.036,232.785 31.914,235.889 32.323 M165.778 33.667 C 165.778 33.850,165.678 34.000,165.556 34.000 C 165.433 34.000,165.333 33.850,165.333 33.667 C 165.333 33.483,165.433 33.333,165.556 33.333 C 165.678 33.333,165.778 33.483,165.778 33.667 M201.051 36.162 C 201.003 36.623,200.963 36.300,200.962 35.444 C 200.961 34.589,201.000 34.212,201.049 34.606 C 201.098 35.001,201.099 35.701,201.051 36.162 M213.960 37.841 C 214.096 38.004,214.118 38.254,214.011 38.426 C 213.866 38.662,213.772 38.627,213.579 38.267 C 213.183 37.526,213.450 37.227,213.960 37.841 M201.053 49.278 C 201.009 49.981,200.973 49.406,200.973 48.000 C 200.973 46.594,201.009 46.019,201.053 46.722 C 201.097 47.425,201.097 48.575,201.053 49.278 M217.716 51.833 C 217.667 52.231,217.627 51.906,217.627 51.111 C 217.627 50.317,217.667 49.992,217.716 50.389 C 217.766 50.786,217.766 51.436,217.716 51.833 M212.965 50.766 C 213.047 50.982,212.982 51.047,212.766 50.965 C 212.568 50.889,212.444 50.978,212.444 51.198 C 212.444 51.395,212.344 51.556,212.222 51.556 C 211.931 51.556,211.942 51.420,212.276 50.886 C 212.603 50.362,212.797 50.328,212.965 50.766 M161.668 51.551 C 161.621 51.793,161.491 52.156,161.378 52.357 C 161.040 52.960,160.791 52.265,161.122 51.645 C 161.468 50.999,161.784 50.944,161.668 51.551 M165.690 53.229 C 165.717 53.408,165.647 53.556,165.536 53.556 C 165.424 53.556,165.333 53.339,165.333 53.074 C 165.333 52.561,165.610 52.681,165.690 53.229 M230.000 54.000 C 230.000 54.122,229.850 54.222,229.667 54.222 C 229.483 54.222,229.333 54.122,229.333 54.000 C 229.333 53.878,229.483 53.778,229.667 53.778 C 229.850 53.778,230.000 53.878,230.000 54.000 M219.111 54.444 C 219.111 54.689,219.011 54.889,218.889 54.889 C 218.767 54.889,218.667 54.689,218.667 54.444 C 218.667 54.200,218.767 54.000,218.889 54.000 C 219.011 54.000,219.111 54.200,219.111 54.444 M168.107 54.742 C 168.356 54.991,168.262 55.045,167.536 55.074 C 166.557 55.112,166.427 54.971,167.167 54.674 C 167.828 54.408,167.769 54.404,168.107 54.742 M227.000 54.889 C 227.079 55.017,226.873 55.110,226.513 55.108 C 226.028 55.105,225.963 55.056,226.222 54.889 C 226.649 54.613,226.829 54.613,227.000 54.889 M195.611 87.943 C 196.436 87.985,197.786 87.985,198.611 87.943 C 199.436 87.900,198.761 87.865,197.111 87.865 C 195.461 87.865,194.786 87.900,195.611 87.943 M218.206 87.944 C 235.042 87.999,236.333 88.030,236.762 88.390 C 237.222 88.777,237.222 88.777,236.799 88.278 L 236.376 87.778 218.243 87.832 L 200.111 87.886 218.206 87.944 M236.972 92.333 C 236.973 93.678,237.009 94.199,237.053 93.492 C 237.098 92.785,237.097 91.685,237.052 91.047 C 237.008 90.410,236.972 90.989,236.972 92.333 M163.397 91.444 C 163.399 92.056,163.442 92.279,163.493 91.941 C 163.544 91.604,163.543 91.104,163.490 90.830 C 163.437 90.557,163.395 90.833,163.397 91.444 M163.612 94.111 C 163.614 94.600,163.660 94.774,163.713 94.497 C 163.766 94.221,163.764 93.821,163.708 93.609 C 163.653 93.396,163.609 93.622,163.612 94.111 M163.844 96.444 C 163.844 97.117,163.886 97.392,163.937 97.056 C 163.988 96.719,163.988 96.169,163.937 95.833 C 163.886 95.497,163.844 95.772,163.844 96.444 M236.500 97.667 C 236.503 98.156,236.548 98.329,236.602 98.053 C 236.655 97.777,236.653 97.377,236.597 97.164 C 236.542 96.952,236.498 97.178,236.500 97.667 M164.056 98.778 C 164.059 99.267,164.104 99.441,164.157 99.164 C 164.210 98.888,164.208 98.488,164.153 98.275 C 164.097 98.063,164.054 98.289,164.056 98.778 M164.286 101.000 C 164.287 101.611,164.331 101.835,164.382 101.497 C 164.433 101.159,164.431 100.659,164.379 100.386 C 164.326 100.113,164.284 100.389,164.286 101.000 M236.052 100.889 C 236.052 101.317,236.097 101.492,236.153 101.278 C 236.209 101.064,236.209 100.714,236.153 100.500 C 236.097 100.286,236.052 100.461,236.052 100.889 M181.389 102.826 C 181.725 102.877,182.275 102.877,182.611 102.826 C 182.947 102.775,182.672 102.733,182.000 102.733 C 181.328 102.733,181.053 102.775,181.389 102.826 M187.500 102.833 C 189.731 102.869,193.381 102.869,195.611 102.833 C 197.842 102.797,196.017 102.767,191.556 102.767 C 187.094 102.767,185.269 102.797,187.500 102.833 M231.614 102.826 C 231.952 102.877,232.452 102.876,232.725 102.823 C 232.999 102.770,232.722 102.729,232.111 102.730 C 231.500 102.732,231.276 102.775,231.614 102.826 M205.278 103.055 C 208.119 103.091,212.769 103.091,215.611 103.055 C 218.453 103.020,216.128 102.991,210.444 102.991 C 204.761 102.991,202.436 103.020,205.278 103.055 M233.833 103.042 C 234.047 103.098,234.397 103.098,234.611 103.042 C 234.825 102.986,234.650 102.940,234.222 102.940 C 233.794 102.940,233.619 102.986,233.833 103.042 M179.612 104.111 C 179.614 104.600,179.660 104.774,179.713 104.497 C 179.766 104.221,179.764 103.821,179.708 103.609 C 179.653 103.396,179.609 103.622,179.612 104.111 M164.730 105.889 C 164.732 106.500,164.775 106.724,164.826 106.386 C 164.877 106.048,164.876 105.548,164.823 105.275 C 164.770 105.001,164.729 105.278,164.730 105.889 M164.940 108.444 C 164.940 108.872,164.986 109.047,165.042 108.833 C 165.098 108.619,165.098 108.269,165.042 108.056 C 164.986 107.842,164.940 108.017,164.940 108.444 M180.052 108.667 C 180.052 109.094,180.097 109.269,180.153 109.056 C 180.209 108.842,180.209 108.492,180.153 108.278 C 180.097 108.064,180.052 108.239,180.052 108.667 M165.175 110.778 C 165.176 111.389,165.219 111.613,165.271 111.275 C 165.322 110.937,165.320 110.437,165.268 110.164 C 165.215 109.890,165.173 110.167,165.175 110.778 M180.283 110.889 C 180.283 111.439,180.326 111.664,180.379 111.389 C 180.432 111.114,180.432 110.664,180.379 110.389 C 180.326 110.114,180.283 110.339,180.283 110.889 M39.074 110.833 C 58.670 110.865,90.670 110.865,110.185 110.833 C 129.700 110.802,113.667 110.776,74.556 110.776 C 35.444 110.776,19.478 110.802,39.074 110.833 M165.397 113.444 C 165.399 114.056,165.442 114.279,165.493 113.941 C 165.544 113.604,165.543 113.104,165.490 112.830 C 165.437 112.557,165.395 112.833,165.397 113.444 M180.508 113.444 C 180.510 114.056,180.553 114.279,180.604 113.941 C 180.655 113.604,180.654 113.104,180.601 112.830 C 180.548 112.557,180.506 112.833,180.508 113.444 M165.622 116.000 C 165.622 116.672,165.664 116.947,165.715 116.611 C 165.766 116.275,165.766 115.725,165.715 115.389 C 165.664 115.053,165.622 115.328,165.622 116.000 M208.261 117.055 C 212.744 117.089,220.144 117.089,224.706 117.055 C 229.268 117.022,225.600 116.994,216.556 116.994 C 207.511 116.994,203.779 117.022,208.261 117.055 M184.291 117.277 C 185.856 117.316,188.356 117.315,189.846 117.277 C 191.336 117.239,190.056 117.207,187.000 117.207 C 183.944 117.208,182.725 117.239,184.291 117.277 M233.444 117.271 C 234.326 117.486,234.721 118.049,234.577 118.888 C 234.230 120.903,234.222 121.210,234.544 120.111 C 235.109 118.182,234.720 117.074,233.500 117.137 C 233.047 117.160,233.042 117.173,233.444 117.271 M165.829 118.444 C 165.829 118.872,165.875 119.047,165.931 118.833 C 165.987 118.619,165.987 118.269,165.931 118.056 C 165.875 117.842,165.829 118.017,165.829 118.444 M166.064 121.000 C 166.065 121.611,166.108 121.835,166.159 121.497 C 166.211 121.159,166.209 120.659,166.156 120.386 C 166.104 120.113,166.062 120.389,166.064 121.000 M234.052 122.222 C 234.052 122.650,234.097 122.825,234.153 122.611 C 234.209 122.397,234.209 122.047,234.153 121.833 C 234.097 121.619,234.052 121.794,234.052 122.222 M166.283 123.556 C 166.283 124.106,166.326 124.331,166.379 124.056 C 166.432 123.781,166.432 123.331,166.379 123.056 C 166.326 122.781,166.283 123.006,166.283 123.556 M233.817 124.667 C 233.793 125.217,233.728 126.217,233.671 126.889 L 233.568 128.111 233.794 127.024 C 233.919 126.425,233.985 125.425,233.941 124.801 L 233.860 123.667 233.817 124.667 M166.508 125.889 C 166.510 126.500,166.553 126.724,166.604 126.386 C 166.655 126.048,166.654 125.548,166.601 125.275 C 166.548 125.001,166.506 125.278,166.508 125.889 M166.723 128.556 C 166.725 129.044,166.771 129.218,166.824 128.942 C 166.877 128.665,166.875 128.265,166.819 128.053 C 166.764 127.841,166.720 128.067,166.723 128.556 M233.402 130.111 C 233.403 130.844,233.445 131.118,233.494 130.718 C 233.544 130.319,233.543 129.719,233.492 129.385 C 233.441 129.051,233.401 129.378,233.402 130.111 M166.945 130.556 C 166.947 131.044,166.993 131.218,167.046 130.942 C 167.099 130.665,167.097 130.265,167.042 130.053 C 166.986 129.841,166.942 130.067,166.945 130.556 M167.944 131.718 C 168.464 131.765,169.314 131.765,169.833 131.718 C 170.353 131.671,169.928 131.633,168.889 131.633 C 167.850 131.633,167.425 131.671,167.944 131.718 M233.172 132.444 C 233.172 132.994,233.215 133.219,233.268 132.944 C 233.321 132.669,233.321 132.219,233.268 131.944 C 233.215 131.669,233.172 131.894,233.172 132.444 M204.500 131.944 C 206.792 131.980,210.542 131.980,212.833 131.944 C 215.125 131.908,213.250 131.878,208.667 131.878 C 204.083 131.878,202.208 131.908,204.500 131.944 M217.639 132.380 C 217.747 132.539,217.911 132.994,218.006 133.390 C 218.163 134.051,218.179 134.062,218.199 133.525 C 218.212 133.202,218.047 132.747,217.833 132.514 C 217.619 132.281,217.532 132.220,217.639 132.380 M232.826 135.976 C 232.732 137.368,232.698 138.550,232.751 138.603 C 232.894 138.746,233.162 135.116,233.074 134.222 C 233.032 133.794,232.920 134.583,232.826 135.976 M217.829 135.111 C 217.829 135.539,217.875 135.714,217.931 135.500 C 217.987 135.286,217.987 134.936,217.931 134.722 C 217.875 134.508,217.829 134.683,217.829 135.111 M217.612 137.444 C 217.614 137.933,217.660 138.107,217.713 137.831 C 217.766 137.554,217.764 137.154,217.708 136.942 C 217.653 136.729,217.609 136.956,217.612 137.444 M172.957 138.833 C 174.400 138.871,176.700 138.871,178.068 138.832 C 179.436 138.794,178.256 138.762,175.444 138.762 C 172.633 138.762,171.514 138.794,172.957 138.833 M217.385 139.556 C 217.385 139.983,217.431 140.158,217.487 139.944 C 217.542 139.731,217.542 139.381,217.487 139.167 C 217.431 138.953,217.385 139.128,217.385 139.556 M232.384 141.089 C 232.291 142.361,232.258 143.443,232.309 143.495 C 232.455 143.640,232.715 140.430,232.629 139.556 C 232.587 139.128,232.477 139.818,232.384 141.089 M167.829 140.444 C 167.829 140.872,167.875 141.047,167.931 140.833 C 167.987 140.619,167.987 140.269,167.931 140.056 C 167.875 139.842,167.829 140.017,167.829 140.444 M217.175 141.889 C 217.176 142.500,217.219 142.724,217.271 142.386 C 217.322 142.048,217.320 141.548,217.268 141.275 C 217.215 141.001,217.173 141.278,217.175 141.889 M183.163 142.222 C 183.163 142.650,183.208 142.825,183.264 142.611 C 183.320 142.397,183.320 142.047,183.264 141.833 C 183.208 141.619,183.163 141.794,183.163 142.222 M168.052 142.444 C 168.052 142.872,168.097 143.047,168.153 142.833 C 168.209 142.619,168.209 142.269,168.153 142.056 C 168.097 141.842,168.052 142.017,168.052 142.444 M168.278 144.556 C 168.281 145.044,168.326 145.218,168.379 144.942 C 168.433 144.665,168.431 144.265,168.375 144.053 C 168.319 143.841,168.276 144.067,168.278 144.556 M216.940 144.444 C 216.940 144.872,216.986 145.047,217.042 144.833 C 217.098 144.619,217.098 144.269,217.042 144.056 C 216.986 143.842,216.940 144.017,216.940 144.444 M232.069 145.222 C 232.070 145.956,232.112 146.229,232.161 145.829 C 232.211 145.430,232.209 144.830,232.159 144.496 C 232.108 144.162,232.068 144.489,232.069 145.222 M183.622 146.222 C 183.622 146.894,183.664 147.169,183.715 146.833 C 183.766 146.497,183.766 145.947,183.715 145.611 C 183.664 145.275,183.622 145.550,183.622 146.222 M216.738 146.889 C 216.738 147.683,216.778 148.008,216.827 147.611 C 216.877 147.214,216.877 146.564,216.827 146.167 C 216.778 145.769,216.738 146.094,216.738 146.889 M168.496 146.889 C 168.496 147.317,168.542 147.492,168.598 147.278 C 168.654 147.064,168.654 146.714,168.598 146.500 C 168.542 146.286,168.496 146.461,168.496 146.889 M231.838 147.556 C 231.838 148.106,231.882 148.331,231.935 148.056 C 231.988 147.781,231.988 147.331,231.935 147.056 C 231.882 146.781,231.838 147.006,231.838 147.556 M168.730 149.222 C 168.732 149.833,168.775 150.057,168.826 149.719 C 168.877 149.381,168.876 148.881,168.823 148.608 C 168.770 148.335,168.729 148.611,168.730 149.222 M231.627 150.222 C 231.627 151.017,231.667 151.342,231.716 150.944 C 231.766 150.547,231.766 149.897,231.716 149.500 C 231.667 149.103,231.627 149.428,231.627 150.222 M216.045 149.788 C 215.896 150.027,215.450 150.371,215.054 150.553 C 214.530 150.794,214.485 150.848,214.889 150.753 C 215.465 150.616,216.613 149.650,216.424 149.461 C 216.365 149.402,216.194 149.549,216.045 149.788 M213.000 151.111 C 212.434 151.354,213.018 151.354,213.778 151.111 C 214.224 150.968,214.246 150.932,213.889 150.927 C 213.644 150.923,213.244 151.006,213.000 151.111 M168.949 152.000 C 168.949 152.550,168.993 152.775,169.046 152.500 C 169.099 152.225,169.099 151.775,169.046 151.500 C 168.993 151.225,168.949 151.450,168.949 152.000 M210.222 151.778 C 209.776 151.921,209.754 151.957,210.111 151.962 C 210.356 151.966,210.756 151.883,211.000 151.778 C 211.566 151.534,210.982 151.534,210.222 151.778 M231.385 152.444 C 231.385 152.872,231.431 153.047,231.487 152.833 C 231.542 152.619,231.542 152.269,231.487 152.056 C 231.431 151.842,231.385 152.017,231.385 152.444 M207.778 152.455 C 207.534 152.619,207.624 152.640,208.111 152.531 C 208.928 152.348,209.106 152.221,208.537 152.226 C 208.303 152.227,207.961 152.331,207.778 152.455 M206.222 152.899 C 205.979 153.064,206.069 153.084,206.556 152.975 C 207.373 152.793,207.550 152.666,206.981 152.670 C 206.747 152.672,206.406 152.775,206.222 152.899 M169.184 154.778 C 169.185 155.633,169.225 155.956,169.273 155.495 C 169.321 155.034,169.321 154.334,169.271 153.939 C 169.222 153.545,169.183 153.922,169.184 154.778 M202.952 153.782 C 202.681 153.891,201.946 154.028,201.318 154.086 C 200.691 154.145,200.113 154.263,200.034 154.349 C 199.815 154.586,202.194 154.264,203.333 153.903 C 203.883 153.728,204.133 153.585,203.889 153.585 C 203.644 153.584,203.223 153.673,202.952 153.782 M231.182 155.333 C 231.182 156.128,231.223 156.453,231.272 156.056 C 231.321 155.658,231.321 155.008,231.272 154.611 C 231.223 154.214,231.182 154.539,231.182 155.333 M169.394 157.778 C 169.394 158.328,169.437 158.553,169.490 158.278 C 169.543 158.003,169.543 157.553,169.490 157.278 C 169.437 157.003,169.394 157.228,169.394 157.778 M230.949 157.778 C 230.949 158.328,230.993 158.553,231.046 158.278 C 231.099 158.003,231.099 157.553,231.046 157.278 C 230.993 157.003,230.949 157.228,230.949 157.778 M230.727 160.000 C 230.727 160.550,230.771 160.775,230.823 160.500 C 230.876 160.225,230.876 159.775,230.823 159.500 C 230.771 159.225,230.727 159.450,230.727 160.000 M171.450 162.200 C 171.569 162.317,171.967 162.484,172.333 162.571 C 173.193 162.775,173.000 162.586,172.005 162.249 C 171.580 162.105,171.330 162.084,171.450 162.200 M228.667 162.222 L 228.111 162.400 228.709 162.422 C 229.038 162.434,229.369 162.344,229.444 162.222 C 229.601 161.970,229.455 161.970,228.667 162.222 M226.111 162.889 C 225.545 163.132,226.129 163.132,226.889 162.889 C 227.335 162.746,227.357 162.710,227.000 162.704 C 226.756 162.701,226.356 162.784,226.111 162.889 M222.333 163.895 C 221.844 164.056,221.644 164.188,221.889 164.188 C 222.133 164.188,222.683 164.054,223.111 163.889 C 224.108 163.505,223.503 163.510,222.333 163.895 M220.444 164.444 C 219.987 164.591,219.967 164.626,220.333 164.641 C 220.578 164.651,220.928 164.563,221.111 164.444 C 221.500 164.193,221.230 164.193,220.444 164.444 M218.778 164.889 C 218.498 165.009,218.457 165.080,218.667 165.080 C 218.850 165.080,219.200 164.994,219.444 164.889 C 219.725 164.769,219.766 164.698,219.556 164.698 C 219.372 164.698,219.022 164.784,218.778 164.889 M214.908 165.951 C 214.123 166.148,213.582 166.342,213.705 166.383 C 213.948 166.464,216.440 165.856,216.626 165.670 C 216.793 165.503,216.498 165.551,214.908 165.951 M212.444 166.667 L 211.889 166.845 212.487 166.867 C 212.816 166.879,213.147 166.789,213.222 166.667 C 213.378 166.414,213.233 166.414,212.444 166.667 M210.778 167.111 C 210.163 167.268,210.154 167.283,210.667 167.304 C 210.972 167.316,211.372 167.230,211.556 167.111 C 211.934 166.867,211.738 166.867,210.778 167.111 M189.889 167.333 C 190.133 167.438,190.483 167.524,190.667 167.524 C 190.877 167.524,190.836 167.454,190.556 167.333 C 190.311 167.228,189.961 167.142,189.778 167.142 C 189.568 167.142,189.609 167.213,189.889 167.333 M209.111 167.556 C 208.653 167.702,208.634 167.737,209.000 167.752 C 209.244 167.763,209.594 167.674,209.778 167.556 C 210.167 167.304,209.897 167.304,209.111 167.556 M207.444 168.000 C 206.829 168.156,206.821 168.171,207.333 168.193 C 207.639 168.205,208.039 168.118,208.222 168.000 C 208.600 167.756,208.405 167.756,207.444 168.000 M203.667 168.889 L 203.000 169.059 203.667 169.081 C 204.033 169.094,204.483 169.007,204.667 168.889 C 205.079 168.622,204.715 168.622,203.667 168.889 " stroke="none" fill="#ec754e" fill-rule="evenodd"></path></g></svg>